<?xml version="1.0" encoding="UTF-8"?>
<svg width="200" height="200" viewBox="0 0 200 200" fill="none" xmlns="http://www.w3.org/2000/svg">
  <!-- First Candlestick -->
  <line x1="30" y1="20" x2="30" y2="80" stroke="currentColor" stroke-width="1"/>
  <rect x="25" y="40" width="10" height="25" fill="currentColor"/>
  
  <!-- Second Candlestick -->
  <line x1="60" y1="30" x2="60" y2="90" stroke="currentColor" stroke-width="1"/>
  <rect x="55" y="50" width="10" height="30" fill="currentColor"/>
  
  <!-- Third Candlestick -->
  <line x1="90" y1="40" x2="90" y2="100" stroke="currentColor" stroke-width="1"/>
  <rect x="85" y="60" width="10" height="20" fill="currentColor"/>
  
  <!-- Fourth Candlestick -->
  <line x1="120" y1="50" x2="120" y2="110" stroke="currentColor" stroke-width="1"/>
  <rect x="115" y="70" width="10" height="25" fill="currentColor"/>
  
  <!-- Fifth Candlestick -->
  <line x1="150" y1="60" x2="150" y2="120" stroke="currentColor" stroke-width="1"/>
  <rect x="145" y="80" width="10" height="30" fill="currentColor"/>
  
  <!-- Repeated Pattern (offset) -->
  <line x1="30" y1="100" x2="30" y2="160" stroke="currentColor" stroke-width="1"/>
  <rect x="25" y="120" width="10" height="25" fill="currentColor"/>
  
  <line x1="60" y1="110" x2="60" y2="170" stroke="currentColor" stroke-width="1"/>
  <rect x="55" y="130" width="10" height="30" fill="currentColor"/>
  
  <line x1="90" y1="120" x2="90" y2="180" stroke="currentColor" stroke-width="1"/>
  <rect x="85" y="140" width="10" height="20" fill="currentColor"/>
  
  <line x1="120" y1="130" x2="120" y2="190" stroke="currentColor" stroke-width="1"/>
  <rect x="115" y="150" width="10" height="25" fill="currentColor"/>
  
  <line x1="150" y1="140" x2="150" y2="200" stroke="currentColor" stroke-width="1"/>
  <rect x="145" y="160" width="10" height="30" fill="currentColor"/>
</svg> 